<mxfile host="app.diagrams.net" agent="Mozilla/5.0 (Windows NT 10.0; Win64; x64) AppleWebKit/537.36 (KHTML, like Gecko) Chrome/135.0.0.0 Safari/537.36" version="26.2.14">
  <diagram name="Página-1" id="aVawXsDOSbOJxhZ16SDK">
    <mxGraphModel dx="2492" dy="785" grid="1" gridSize="10" guides="1" tooltips="1" connect="1" arrows="1" fold="1" page="1" pageScale="1" pageWidth="827" pageHeight="1169" math="0" shadow="0">
      <root>
        <mxCell id="0" />
        <mxCell id="1" parent="0" />
        <mxCell id="afjVskx9hVakSXEMpHpw-1" value="DIAGRAMAS DE CLASSES DE CREDITO" style="swimlane;whiteSpace=wrap;html=1;" vertex="1" parent="1">
          <mxGeometry x="-80" y="50" width="1193" height="1025" as="geometry" />
        </mxCell>
        <mxCell id="afjVskx9hVakSXEMpHpw-2" value="&lt;p style=&quot;margin:0px;margin-top:4px;text-align:center;&quot;&gt;&lt;b&gt;EMPRESTIMOS&lt;/b&gt;&lt;/p&gt;&lt;hr size=&quot;1&quot; style=&quot;border-style:solid;&quot;&gt;&lt;p style=&quot;margin:0px;margin-left:4px;&quot;&gt;- numero : int&lt;/p&gt;&lt;p style=&quot;margin:0px;margin-left:4px;&quot;&gt;- tipo : String&lt;/p&gt;&lt;p style=&quot;margin:0px;margin-left:4px;&quot;&gt;- valor : double&lt;/p&gt;&lt;p style=&quot;margin:0px;margin-left:4px;&quot;&gt;- situação : String&lt;/p&gt;&lt;hr size=&quot;1&quot; style=&quot;border-style:solid;&quot;&gt;&lt;p style=&quot;margin:0px;margin-left:4px;&quot;&gt;+ abriEmprestimo()&lt;/p&gt;&lt;p style=&quot;margin:0px;margin-left:4px;&quot;&gt;+atualizarSituação()&lt;/p&gt;" style="verticalAlign=top;align=left;overflow=fill;html=1;whiteSpace=wrap;" vertex="1" parent="afjVskx9hVakSXEMpHpw-1">
          <mxGeometry x="320" y="240" width="160" height="150" as="geometry" />
        </mxCell>
        <mxCell id="afjVskx9hVakSXEMpHpw-3" value="&lt;p style=&quot;margin:0px;margin-top:4px;text-align:center;&quot;&gt;&lt;b&gt;CLIENTES&lt;/b&gt;&lt;/p&gt;&lt;hr size=&quot;1&quot; style=&quot;border-style:solid;&quot;&gt;&lt;p style=&quot;margin:0px;margin-left:4px;&quot;&gt;&lt;span style=&quot;background-color: transparent; color: light-dark(rgb(0, 0, 0), rgb(255, 255, 255));&quot;&gt;- nome : String&lt;/span&gt;&lt;/p&gt;&lt;p style=&quot;margin:0px;margin-left:4px;&quot;&gt;- endereço : String&lt;/p&gt;&lt;p style=&quot;margin:0px;margin-left:4px;&quot;&gt;- telefone : String&lt;/p&gt;&lt;p style=&quot;margin:0px;margin-left:4px;&quot;&gt;- tipo : String&lt;/p&gt;&lt;hr size=&quot;1&quot; style=&quot;border-style:solid;&quot;&gt;&lt;p style=&quot;margin:0px;margin-left:4px;&quot;&gt;+ cadastrar()&lt;/p&gt;" style="verticalAlign=top;align=left;overflow=fill;html=1;whiteSpace=wrap;" vertex="1" parent="afjVskx9hVakSXEMpHpw-1">
          <mxGeometry x="320" y="30" width="160" height="130" as="geometry" />
        </mxCell>
        <mxCell id="afjVskx9hVakSXEMpHpw-4" value="&lt;p style=&quot;margin:0px;margin-top:4px;text-align:center;&quot;&gt;&lt;b&gt;PESSOA FISICA&lt;/b&gt;&lt;/p&gt;&lt;hr size=&quot;1&quot; style=&quot;border-style:solid;&quot;&gt;&lt;p style=&quot;margin: 0px 0px 0px 4px;&quot;&gt;- cpf : String&lt;/p&gt;&lt;p style=&quot;margin: 0px 0px 0px 4px;&quot;&gt;- rg : String&lt;/p&gt;&lt;p style=&quot;margin: 0px 0px 0px 4px;&quot;&gt;- numero carteira de trabalho : String&lt;/p&gt;&lt;hr size=&quot;1&quot; style=&quot;border-style:solid;&quot;&gt;&lt;p style=&quot;margin:0px;margin-left:4px;&quot;&gt;+ inserirVinculoEmpregaticio()&lt;/p&gt;" style="verticalAlign=top;align=left;overflow=fill;html=1;whiteSpace=wrap;" vertex="1" parent="afjVskx9hVakSXEMpHpw-1">
          <mxGeometry x="670" y="30" width="210" height="120" as="geometry" />
        </mxCell>
        <mxCell id="afjVskx9hVakSXEMpHpw-5" value="&lt;p style=&quot;margin:0px;margin-top:4px;text-align:center;&quot;&gt;&lt;b&gt;EMPRESA&lt;/b&gt;&lt;/p&gt;&lt;hr size=&quot;1&quot; style=&quot;border-style:solid;&quot;&gt;&lt;p style=&quot;margin:0px;margin-left:4px;&quot;&gt;- cnpj : String&lt;/p&gt;&lt;p style=&quot;margin:0px;margin-left:4px;&quot;&gt;- nome : String&lt;/p&gt;&lt;hr size=&quot;1&quot; style=&quot;border-style:solid;&quot;&gt;&lt;p style=&quot;margin:0px;margin-left:4px;&quot;&gt;+ cadastrar()&lt;/p&gt;" style="verticalAlign=top;align=left;overflow=fill;html=1;whiteSpace=wrap;" vertex="1" parent="afjVskx9hVakSXEMpHpw-1">
          <mxGeometry x="1010" y="60" width="160" height="90" as="geometry" />
        </mxCell>
        <mxCell id="afjVskx9hVakSXEMpHpw-6" value="&lt;p style=&quot;margin:0px;margin-top:4px;text-align:center;&quot;&gt;&lt;b&gt;PESSOA JURIDICA&lt;/b&gt;&lt;/p&gt;&lt;hr size=&quot;1&quot; style=&quot;border-style:solid;&quot;&gt;&lt;p style=&quot;margin:0px;margin-left:4px;&quot;&gt;- cnpj : String&lt;/p&gt;&lt;p style=&quot;margin:0px;margin-left:4px;&quot;&gt;- inscrição estadual : String&lt;/p&gt;&lt;hr size=&quot;1&quot; style=&quot;border-style:solid;&quot;&gt;&lt;p style=&quot;margin:0px;margin-left:4px;&quot;&gt;&lt;span style=&quot;background-color: transparent; color: light-dark(rgb(0, 0, 0), rgb(255, 255, 255));&quot;&gt;+ inserirContaBancaria()&lt;/span&gt;&lt;/p&gt;" style="verticalAlign=top;align=left;overflow=fill;html=1;whiteSpace=wrap;" vertex="1" parent="afjVskx9hVakSXEMpHpw-1">
          <mxGeometry x="835" y="220" width="210" height="100" as="geometry" />
        </mxCell>
        <mxCell id="afjVskx9hVakSXEMpHpw-7" value="" style="endArrow=block;endSize=16;endFill=0;html=1;rounded=0;exitX=0;exitY=0.5;exitDx=0;exitDy=0;entryX=1;entryY=0.5;entryDx=0;entryDy=0;" edge="1" parent="afjVskx9hVakSXEMpHpw-1" source="afjVskx9hVakSXEMpHpw-4" target="afjVskx9hVakSXEMpHpw-3">
          <mxGeometry width="160" relative="1" as="geometry">
            <mxPoint x="481" y="90" as="sourcePoint" />
            <mxPoint x="420" y="90" as="targetPoint" />
          </mxGeometry>
        </mxCell>
        <mxCell id="afjVskx9hVakSXEMpHpw-10" value="" style="endArrow=block;endSize=16;endFill=0;html=1;rounded=0;exitX=0.5;exitY=0;exitDx=0;exitDy=0;" edge="1" parent="afjVskx9hVakSXEMpHpw-1" source="afjVskx9hVakSXEMpHpw-6" target="afjVskx9hVakSXEMpHpw-3">
          <mxGeometry width="160" relative="1" as="geometry">
            <mxPoint x="289" y="180" as="sourcePoint" />
            <mxPoint x="285" y="140" as="targetPoint" />
            <Array as="points" />
          </mxGeometry>
        </mxCell>
        <mxCell id="afjVskx9hVakSXEMpHpw-12" value="&lt;p style=&quot;margin:0px;margin-top:4px;text-align:center;&quot;&gt;&lt;b&gt;BANCO&lt;/b&gt;&lt;/p&gt;&lt;hr size=&quot;1&quot; style=&quot;border-style:solid;&quot;&gt;&lt;p style=&quot;margin:0px;margin-left:4px;&quot;&gt;- codigo : int&lt;/p&gt;&lt;hr size=&quot;1&quot; style=&quot;border-style:solid;&quot;&gt;&lt;p style=&quot;margin:0px;margin-left:4px;&quot;&gt;+ cadastrar()&lt;/p&gt;" style="verticalAlign=top;align=left;overflow=fill;html=1;whiteSpace=wrap;" vertex="1" parent="afjVskx9hVakSXEMpHpw-1">
          <mxGeometry x="580" y="350" width="160" height="90" as="geometry" />
        </mxCell>
        <mxCell id="afjVskx9hVakSXEMpHpw-13" value="&lt;p style=&quot;margin:0px;margin-top:4px;text-align:center;&quot;&gt;&lt;b&gt;AGENCIA&lt;/b&gt;&lt;/p&gt;&lt;hr size=&quot;1&quot; style=&quot;border-style:solid;&quot;&gt;&lt;p style=&quot;margin:0px;margin-left:4px;&quot;&gt;- numero : int&lt;/p&gt;&lt;hr size=&quot;1&quot; style=&quot;border-style:solid;&quot;&gt;&lt;p style=&quot;margin:0px;margin-left:4px;&quot;&gt;+ cadastrar()&lt;/p&gt;" style="verticalAlign=top;align=left;overflow=fill;html=1;whiteSpace=wrap;" vertex="1" parent="afjVskx9hVakSXEMpHpw-1">
          <mxGeometry x="590" y="220" width="160" height="90" as="geometry" />
        </mxCell>
        <mxCell id="afjVskx9hVakSXEMpHpw-14" value="" style="endArrow=diamondThin;endFill=1;endSize=24;html=1;rounded=0;exitX=0.463;exitY=1.011;exitDx=0;exitDy=0;entryX=0.5;entryY=0;entryDx=0;entryDy=0;exitPerimeter=0;" edge="1" parent="afjVskx9hVakSXEMpHpw-1" source="afjVskx9hVakSXEMpHpw-13" target="afjVskx9hVakSXEMpHpw-12">
          <mxGeometry width="160" relative="1" as="geometry">
            <mxPoint x="630" y="365" as="sourcePoint" />
            <mxPoint x="630" y="415" as="targetPoint" />
          </mxGeometry>
        </mxCell>
        <mxCell id="afjVskx9hVakSXEMpHpw-25" value="0.." style="edgeLabel;html=1;align=center;verticalAlign=middle;resizable=0;points=[];fontFamily=Helvetica;fontSize=11;fontColor=default;labelBackgroundColor=default;" vertex="1" connectable="0" parent="afjVskx9hVakSXEMpHpw-14">
          <mxGeometry x="-0.48" y="-1" relative="1" as="geometry">
            <mxPoint x="11" y="-3" as="offset" />
          </mxGeometry>
        </mxCell>
        <mxCell id="afjVskx9hVakSXEMpHpw-35" style="edgeStyle=orthogonalEdgeStyle;shape=connector;rounded=0;orthogonalLoop=1;jettySize=auto;html=1;strokeColor=default;align=center;verticalAlign=middle;fontFamily=Helvetica;fontSize=11;fontColor=default;labelBackgroundColor=default;startFill=0;endArrow=none;" edge="1" parent="afjVskx9hVakSXEMpHpw-1" source="afjVskx9hVakSXEMpHpw-16" target="afjVskx9hVakSXEMpHpw-2">
          <mxGeometry relative="1" as="geometry" />
        </mxCell>
        <mxCell id="afjVskx9hVakSXEMpHpw-40" value="1" style="edgeLabel;html=1;align=center;verticalAlign=middle;resizable=0;points=[];fontFamily=Helvetica;fontSize=11;fontColor=default;labelBackgroundColor=default;" vertex="1" connectable="0" parent="afjVskx9hVakSXEMpHpw-35">
          <mxGeometry x="-0.8683" y="-2" relative="1" as="geometry">
            <mxPoint as="offset" />
          </mxGeometry>
        </mxCell>
        <mxCell id="afjVskx9hVakSXEMpHpw-41" value="0..." style="edgeLabel;html=1;align=center;verticalAlign=middle;resizable=0;points=[];fontFamily=Helvetica;fontSize=11;fontColor=default;labelBackgroundColor=default;" vertex="1" connectable="0" parent="afjVskx9hVakSXEMpHpw-35">
          <mxGeometry x="0.8601" relative="1" as="geometry">
            <mxPoint as="offset" />
          </mxGeometry>
        </mxCell>
        <mxCell id="afjVskx9hVakSXEMpHpw-16" value="&lt;p style=&quot;margin:0px;margin-top:4px;text-align:center;&quot;&gt;&lt;b&gt;GERENTE&lt;/b&gt;&lt;/p&gt;&lt;hr size=&quot;1&quot; style=&quot;border-style:solid;&quot;&gt;&lt;p style=&quot;margin: 0px 0px 0px 4px;&quot;&gt;- nome: String&lt;/p&gt;&lt;p style=&quot;margin: 0px 0px 0px 4px;&quot;&gt;- numero de indentificação profissionação : String&lt;br&gt;&lt;/p&gt;&lt;hr size=&quot;1&quot; style=&quot;border-style:solid;&quot;&gt;&lt;p style=&quot;margin:0px;margin-left:4px;&quot;&gt;+ aprovarEmprestimo()&lt;/p&gt;&lt;p style=&quot;margin:0px;margin-left:4px;&quot;&gt;+ regeitarEmprestimo()&lt;/p&gt;" style="verticalAlign=top;align=left;overflow=fill;html=1;whiteSpace=wrap;" vertex="1" parent="afjVskx9hVakSXEMpHpw-1">
          <mxGeometry x="30" y="488" width="280" height="110" as="geometry" />
        </mxCell>
        <mxCell id="afjVskx9hVakSXEMpHpw-18" value="&lt;p style=&quot;margin:0px;margin-top:4px;text-align:center;&quot;&gt;&lt;b&gt;APOLICE DE SEGURO&lt;/b&gt;&lt;/p&gt;&lt;hr size=&quot;1&quot; style=&quot;border-style:solid;&quot;&gt;&lt;p style=&quot;margin: 0px 0px 0px 4px;&quot;&gt;- valor : Double&lt;/p&gt;&lt;p style=&quot;margin: 0px 0px 0px 4px;&quot;&gt;- numero : int&lt;br&gt;&lt;/p&gt;&lt;hr size=&quot;1&quot; style=&quot;border-style:solid;&quot;&gt;&lt;p style=&quot;margin:0px;margin-left:4px;&quot;&gt;+ cadastrar()&lt;/p&gt;" style="verticalAlign=top;align=left;overflow=fill;html=1;whiteSpace=wrap;" vertex="1" parent="afjVskx9hVakSXEMpHpw-1">
          <mxGeometry x="494" y="530" width="280" height="120" as="geometry" />
        </mxCell>
        <mxCell id="afjVskx9hVakSXEMpHpw-19" value="&lt;p style=&quot;margin:0px;margin-top:4px;text-align:center;&quot;&gt;&lt;b&gt;CONTRATO&lt;/b&gt;&lt;/p&gt;&lt;hr size=&quot;1&quot; style=&quot;border-style:solid;&quot;&gt;&lt;p style=&quot;margin:0px;margin-left:4px;&quot;&gt;- numero : Int&lt;/p&gt;&lt;p style=&quot;margin:0px;margin-left:4px;&quot;&gt;- data : date&lt;/p&gt;&lt;p style=&quot;margin:0px;margin-left:4px;&quot;&gt;- valor : double&lt;/p&gt;&lt;hr size=&quot;1&quot; style=&quot;border-style:solid;&quot;&gt;&lt;p style=&quot;margin:0px;margin-left:4px;&quot;&gt;+ method(): Type&lt;/p&gt;" style="verticalAlign=top;align=left;overflow=fill;html=1;whiteSpace=wrap;" vertex="1" parent="afjVskx9hVakSXEMpHpw-1">
          <mxGeometry x="50" y="240" width="160" height="130" as="geometry" />
        </mxCell>
        <mxCell id="afjVskx9hVakSXEMpHpw-20" style="rounded=0;orthogonalLoop=1;jettySize=auto;html=1;endArrow=none;startFill=0;edgeStyle=orthogonalEdgeStyle;" edge="1" parent="afjVskx9hVakSXEMpHpw-1" source="afjVskx9hVakSXEMpHpw-3" target="afjVskx9hVakSXEMpHpw-2">
          <mxGeometry relative="1" as="geometry">
            <mxPoint x="209" y="93" as="targetPoint" />
          </mxGeometry>
        </mxCell>
        <mxCell id="afjVskx9hVakSXEMpHpw-21" value="1.1" style="edgeLabel;html=1;align=center;verticalAlign=middle;resizable=0;points=[];fontFamily=Helvetica;fontSize=11;fontColor=default;labelBackgroundColor=default;" vertex="1" connectable="0" parent="afjVskx9hVakSXEMpHpw-20">
          <mxGeometry x="-0.0016" y="-1" relative="1" as="geometry">
            <mxPoint x="11" y="-14" as="offset" />
          </mxGeometry>
        </mxCell>
        <mxCell id="afjVskx9hVakSXEMpHpw-24" value="0.." style="edgeLabel;html=1;align=center;verticalAlign=middle;resizable=0;points=[];fontFamily=Helvetica;fontSize=11;fontColor=default;labelBackgroundColor=default;" vertex="1" connectable="0" parent="afjVskx9hVakSXEMpHpw-20">
          <mxGeometry x="-0.0279" y="2" relative="1" as="geometry">
            <mxPoint x="-19" y="-17" as="offset" />
          </mxGeometry>
        </mxCell>
        <mxCell id="afjVskx9hVakSXEMpHpw-27" style="edgeStyle=none;shape=connector;rounded=0;orthogonalLoop=1;jettySize=auto;html=1;entryX=1;entryY=0.611;entryDx=0;entryDy=0;entryPerimeter=0;strokeColor=default;align=center;verticalAlign=middle;fontFamily=Helvetica;fontSize=11;fontColor=default;labelBackgroundColor=default;startFill=0;endArrow=none;" edge="1" parent="afjVskx9hVakSXEMpHpw-1" source="afjVskx9hVakSXEMpHpw-6" target="afjVskx9hVakSXEMpHpw-13">
          <mxGeometry relative="1" as="geometry" />
        </mxCell>
        <mxCell id="afjVskx9hVakSXEMpHpw-29" value="0.." style="edgeLabel;html=1;align=center;verticalAlign=middle;resizable=0;points=[];fontFamily=Helvetica;fontSize=11;fontColor=default;labelBackgroundColor=default;" vertex="1" connectable="0" parent="afjVskx9hVakSXEMpHpw-27">
          <mxGeometry x="-0.2003" y="-1" relative="1" as="geometry">
            <mxPoint x="26" y="-13" as="offset" />
          </mxGeometry>
        </mxCell>
        <mxCell id="afjVskx9hVakSXEMpHpw-30" value="1.." style="edgeLabel;html=1;align=center;verticalAlign=middle;resizable=0;points=[];fontFamily=Helvetica;fontSize=11;fontColor=default;labelBackgroundColor=default;" vertex="1" connectable="0" parent="afjVskx9hVakSXEMpHpw-27">
          <mxGeometry x="0.3998" relative="1" as="geometry">
            <mxPoint x="-17" y="21" as="offset" />
          </mxGeometry>
        </mxCell>
        <mxCell id="afjVskx9hVakSXEMpHpw-32" style="edgeStyle=none;shape=connector;rounded=0;orthogonalLoop=1;jettySize=auto;html=1;entryX=0.995;entryY=0.592;entryDx=0;entryDy=0;entryPerimeter=0;strokeColor=default;align=center;verticalAlign=middle;fontFamily=Helvetica;fontSize=11;fontColor=default;labelBackgroundColor=default;startFill=0;endArrow=none;" edge="1" parent="afjVskx9hVakSXEMpHpw-1" source="afjVskx9hVakSXEMpHpw-5" target="afjVskx9hVakSXEMpHpw-4">
          <mxGeometry relative="1" as="geometry" />
        </mxCell>
        <mxCell id="afjVskx9hVakSXEMpHpw-33" value="1" style="edgeLabel;html=1;align=center;verticalAlign=middle;resizable=0;points=[];fontFamily=Helvetica;fontSize=11;fontColor=default;labelBackgroundColor=default;" vertex="1" connectable="0" parent="afjVskx9hVakSXEMpHpw-32">
          <mxGeometry x="0.8054" y="1" relative="1" as="geometry">
            <mxPoint x="111" y="13" as="offset" />
          </mxGeometry>
        </mxCell>
        <mxCell id="afjVskx9hVakSXEMpHpw-34" value="0.." style="edgeLabel;html=1;align=center;verticalAlign=middle;resizable=0;points=[];fontFamily=Helvetica;fontSize=11;fontColor=default;labelBackgroundColor=default;" vertex="1" connectable="0" parent="afjVskx9hVakSXEMpHpw-32">
          <mxGeometry x="-0.791" y="2" relative="1" as="geometry">
            <mxPoint x="-106" y="13" as="offset" />
          </mxGeometry>
        </mxCell>
        <mxCell id="afjVskx9hVakSXEMpHpw-38" value="" style="endArrow=diamondThin;endFill=1;endSize=24;html=1;rounded=0;exitX=1;exitY=0.646;exitDx=0;exitDy=0;entryX=-0.019;entryY=0.58;entryDx=0;entryDy=0;exitPerimeter=0;entryPerimeter=0;" edge="1" parent="afjVskx9hVakSXEMpHpw-1" source="afjVskx9hVakSXEMpHpw-19" target="afjVskx9hVakSXEMpHpw-2">
          <mxGeometry width="160" relative="1" as="geometry">
            <mxPoint x="264" y="295.5" as="sourcePoint" />
            <mxPoint x="260" y="334.5" as="targetPoint" />
          </mxGeometry>
        </mxCell>
        <mxCell id="afjVskx9hVakSXEMpHpw-39" value="0.." style="edgeLabel;html=1;align=center;verticalAlign=middle;resizable=0;points=[];fontFamily=Helvetica;fontSize=11;fontColor=default;labelBackgroundColor=default;" vertex="1" connectable="0" parent="afjVskx9hVakSXEMpHpw-38">
          <mxGeometry x="-0.48" y="-1" relative="1" as="geometry">
            <mxPoint x="11" y="-3" as="offset" />
          </mxGeometry>
        </mxCell>
        <mxCell id="afjVskx9hVakSXEMpHpw-42" value="" style="endArrow=diamondThin;endFill=0;endSize=24;html=1;rounded=0;strokeColor=default;align=center;verticalAlign=middle;fontFamily=Helvetica;fontSize=11;fontColor=default;labelBackgroundColor=default;edgeStyle=orthogonalEdgeStyle;entryX=0.931;entryY=1.02;entryDx=0;entryDy=0;entryPerimeter=0;exitX=0.204;exitY=-0.017;exitDx=0;exitDy=0;exitPerimeter=0;" edge="1" parent="afjVskx9hVakSXEMpHpw-1" source="afjVskx9hVakSXEMpHpw-18" target="afjVskx9hVakSXEMpHpw-2">
          <mxGeometry width="160" relative="1" as="geometry">
            <mxPoint x="390" y="430" as="sourcePoint" />
            <mxPoint x="550" y="430" as="targetPoint" />
            <Array as="points">
              <mxPoint x="551" y="430" />
              <mxPoint x="469" y="430" />
            </Array>
          </mxGeometry>
        </mxCell>
        <mxCell id="afjVskx9hVakSXEMpHpw-43" value="0.." style="edgeLabel;html=1;align=center;verticalAlign=middle;resizable=0;points=[];fontFamily=Helvetica;fontSize=11;fontColor=default;labelBackgroundColor=default;" vertex="1" connectable="0" parent="afjVskx9hVakSXEMpHpw-42">
          <mxGeometry x="-0.8714" y="-1" relative="1" as="geometry">
            <mxPoint as="offset" />
          </mxGeometry>
        </mxCell>
      </root>
    </mxGraphModel>
  </diagram>
</mxfile>
